<svg id="google-fill" xmlns="http://www.w3.org/2000/svg" width="32" height="32" viewBox="0 0 32 32">
  <path id="Path" d="M0,0H32V32H0Z" fill="none" fill-rule="evenodd"/>
  <path id="Path-2" data-name="Path" d="M3.5,9.714A14.085,14.085,0,0,1,16.082,2,13.564,13.564,0,0,1,25.5,5.647L21.465,9.662a7.634,7.634,0,0,0-5.383-2.094,8.433,8.433,0,0,0,0,16.864A8.5,8.5,0,0,0,20.85,23.1,6.438,6.438,0,0,0,23.66,18.87H16.082V13.455H29.344a16.006,16.006,0,0,1,.256,2.863,13.606,13.606,0,0,1-4.2,10.29A13.483,13.483,0,0,1,16.082,30a14.118,14.118,0,0,1-9.959-4.1A13.945,13.945,0,0,1,3.5,9.714Z" transform="translate(0 0)" fill="#fff"/>
</svg>
