<svg id="Group_26" data-name="Group 26" xmlns="http://www.w3.org/2000/svg" width="40" height="40" viewBox="0 0 40 40">
  <path id="Path_11" data-name="Path 11" d="M0,0H40V40H0Z" fill="none"/>
  <path id="Path_12" data-name="Path 12" d="M31.966,31.974H26.932v-7.89c0-1.881-.038-4.3-2.626-4.3-2.624,0-3.024,2.048-3.024,4.165v8.028H16.247V15.75h4.836v2.21h.066a5.311,5.311,0,0,1,4.775-2.62c5.1,0,6.044,3.358,6.044,7.727v8.906Zm-21.4-18.443a2.924,2.924,0,1,1,2.924-2.922,2.92,2.92,0,0,1-2.924,2.922Zm2.524,18.443H8.036V15.75h5.051V31.974ZM34.488,3H5.51A2.477,2.477,0,0,0,3,5.45v29.1A2.478,2.478,0,0,0,5.508,37H34.48A2.488,2.488,0,0,0,37,34.55V5.45A2.488,2.488,0,0,0,34.48,3h.006Z" transform="translate(0 0)" fill="#fcb040"/>
</svg>
