<svg id="share-line" xmlns="http://www.w3.org/2000/svg" width="32" height="32" viewBox="0 0 32 32">
  <path id="Path" d="M0,0H32V32H0Z" fill="none" fill-rule="evenodd"/>
  <path id="Shape" d="M17.8,23.032l-5.967-3.206A5.744,5.744,0,0,1,5.6,21.209a5.569,5.569,0,0,1,0-10.417,5.744,5.744,0,0,1,6.239,1.383L17.8,8.97a5.581,5.581,0,0,1,3.436-6.584A5.724,5.724,0,0,1,28.3,4.913a5.547,5.547,0,0,1-1.656,7.221,5.747,5.747,0,0,1-7.481-.708L13.2,14.632a5.53,5.53,0,0,1,0,2.735l5.967,3.206a5.747,5.747,0,0,1,7.481-.708A5.547,5.547,0,0,1,28.3,27.087a5.724,5.724,0,0,1-7.064,2.528A5.581,5.581,0,0,1,17.8,23.03ZM7.684,18.8A2.8,2.8,0,1,0,4.842,16,2.821,2.821,0,0,0,7.684,18.8Zm15.632-8.4a2.8,2.8,0,1,0-2.842-2.8A2.821,2.821,0,0,0,23.316,10.4Zm0,16.8a2.8,2.8,0,1,0-2.842-2.8A2.821,2.821,0,0,0,23.316,27.2Z" transform="translate(0 0)" fill="#fcb040"/>
</svg>
