<svg id="thumb-up-line" xmlns="http://www.w3.org/2000/svg" width="32" height="32" viewBox="0 0 32 32">
  <path id="Path" d="M0,0H32V32H0Z" fill="none" fill-rule="evenodd"/>
  <path id="Shape" d="M19.545,10.892h8.727A2.757,2.757,0,0,1,31,13.678v2.931a2.838,2.838,0,0,1-.2,1.061l-4.22,10.468A1.364,1.364,0,0,1,25.314,29H2.364A1.378,1.378,0,0,1,1,27.607V13.678a1.378,1.378,0,0,1,1.364-1.393H7.112A1.355,1.355,0,0,0,8.226,11.7L15.662.933a.673.673,0,0,1,.862-.221L19,1.975a3.508,3.508,0,0,1,1.78,3.974ZM9.182,14.5V26.214H24.4l3.873-9.605V13.678H19.545A2.707,2.707,0,0,1,17.393,12.6a2.833,2.833,0,0,1-.49-2.4l1.231-4.942a.7.7,0,0,0-.356-.8l-.9-.46L10.454,13.3A4.148,4.148,0,0,1,9.182,14.5Zm-2.727.574H3.727V26.214H6.455Z" transform="translate(0 0)" fill="#666"/>
</svg>
