<svg id="Group_25" data-name="Group 25" xmlns="http://www.w3.org/2000/svg" width="40" height="40" viewBox="0 0 40 40">
  <path id="Path_9" data-name="Path 9" d="M0,0H40V40H0Z" fill="none"/>
  <path id="Path_10" data-name="Path 10" d="M38.161,7.555a13.908,13.908,0,0,1-4.287,1.293A8.157,8.157,0,0,0,37.158,4.3,14.117,14.117,0,0,1,32.417,6.3a6.977,6.977,0,0,0-8.976-1.634,8.536,8.536,0,0,0-3.743,9.13A20.611,20.611,0,0,1,4.312,5.2,8.836,8.836,0,0,0,3.3,9.336a8.465,8.465,0,0,0,3.32,6.842A6.927,6.927,0,0,1,3.241,15.15v.1a8.071,8.071,0,0,0,5.987,8.06,6.846,6.846,0,0,1-3.372.142,7.6,7.6,0,0,0,6.974,5.709,14.015,14.015,0,0,1-11.05,3.4A19.731,19.731,0,0,0,13.22,36.262c13.731,0,21.241-12.525,21.241-23.388,0-.354-.009-.711-.023-1.061a16.105,16.105,0,0,0,3.725-4.255Z" transform="translate(0 0)" fill="#fcb040"/>
</svg>
